# MagicaVoxel @ Ephtracy

# group
o 

# material
mtllib road_tee.mtl
usemtl palette

# normals
vn -1 0 0
vn 1 0 0
vn 0 0 1
vn 0 0 -1
vn 0 -1 0
vn 0 1 0

# texcoords
vt 0.970703 0.5
vt 0.974609 0.5
vt 0.978516 0.5

# verts
v -0.4 0 0.4
v -0.4 0 -0.4
v -0.4 0.2 0.4
v -0.4 0.2 0.1
v -0.4 0.2 -0.1
v -0.4 0.2 -0.4
v -0.4 0.3 0.4
v -0.4 0.3 0.1
v -0.4 0.3 -0.1
v -0.4 0.3 -0.4
v -0.2 0.5 -0.1
v -0.2 0.5 -0.2
v -0.2 0.6 -0.1
v -0.2 0.6 -0.2
v -0.1 0.3 -0.1
v -0.1 0.3 -0.2
v -0.1 0.5 0
v -0.1 0.5 -0.1
v -0.1 0.5 -0.2
v -0.1 0.6 0
v -0.1 0.6 -0.1
v 0 0.3 -0.1
v 0 0.3 -0.2
v 0 0.5 0
v 0 0.5 -0.1
v 0 0.5 -0.2
v 0 0.6 0
v 0 0.6 -0.1
v 0.1 0.5 -0.1
v 0.1 0.5 -0.2
v 0.1 0.6 -0.1
v 0.1 0.6 -0.2
v 0.4 0 0.4
v 0.4 0 -0.4
v 0.4 0.2 0.4
v 0.4 0.2 0.1
v 0.4 0.2 -0.1
v 0.4 0.2 -0.4
v 0.4 0.3 0.4
v 0.4 0.3 0.1
v 0.4 0.3 -0.1
v 0.4 0.3 -0.4
v -0.4 0 0.4
v -0.4 0.2 0.4
v -0.4 0.3 0.4
v -0.1 0.2 0.4
v -0.1 0.3 0.4
v 0.1 0.2 0.4
v 0.1 0.3 0.4
v 0.4 0 0.4
v 0.4 0.2 0.4
v 0.4 0.3 0.4
v -0.1 0.5 0
v -0.1 0.6 0
v 0 0.5 0
v 0 0.6 0
v -0.2 0.5 -0.1
v -0.2 0.6 -0.1
v -0.1 0.3 -0.1
v -0.1 0.5 -0.1
v -0.1 0.6 -0.1
v 0 0.3 -0.1
v 0 0.5 -0.1
v 0 0.6 -0.1
v 0.1 0.5 -0.1
v 0.1 0.6 -0.1
v -0.2 0.5 -0.2
v -0.2 0.6 -0.2
v -0.1 0.3 -0.2
v -0.1 0.5 -0.2
v 0 0.3 -0.2
v 0 0.5 -0.2
v 0.1 0.5 -0.2
v 0.1 0.6 -0.2
v -0.4 0 -0.4
v -0.4 0.2 -0.4
v -0.4 0.3 -0.4
v 0.4 0 -0.4
v 0.4 0.2 -0.4
v 0.4 0.3 -0.4
v -0.4 0 0.4
v 0.4 0 0.4
v -0.4 0 -0.4
v 0.4 0 -0.4
v -0.1 0.5 0
v 0 0.5 0
v -0.2 0.5 -0.1
v -0.1 0.5 -0.1
v 0 0.5 -0.1
v 0.1 0.5 -0.1
v -0.2 0.5 -0.2
v -0.1 0.5 -0.2
v 0 0.5 -0.2
v 0.1 0.5 -0.2
v -0.4 0.3 0.4
v -0.1 0.3 0.4
v 0.1 0.3 0.4
v 0.4 0.3 0.4
v -0.2 0.3 0.2
v -0.1 0.3 0.2
v -0.4 0.3 0.1
v -0.2 0.3 0.1
v 0.1 0.3 0.1
v 0.4 0.3 0.1
v -0.4 0.3 -0.1
v -0.1 0.3 -0.1
v 0 0.3 -0.1
v 0.4 0.3 -0.1
v -0.1 0.3 -0.2
v 0 0.3 -0.2
v -0.4 0.3 -0.4
v 0.4 0.3 -0.4
v -0.1 0.6 0
v 0 0.6 0
v -0.2 0.6 -0.1
v -0.1 0.6 -0.1
v 0 0.6 -0.1
v 0.1 0.6 -0.1
v -0.2 0.6 -0.2
v 0.1 0.6 -0.2

# faces
f 3/1/1 2/1/1 1/1/1
f 4/1/1 2/1/1 3/1/1
f 5/1/1 2/1/1 4/1/1
f 6/1/1 2/1/1 5/1/1
f 7/2/1 4/2/1 3/2/1
f 8/3/1 5/3/1 4/3/1
f 8/2/1 4/2/1 7/2/1
f 9/2/1 6/2/1 5/2/1
f 9/3/1 5/3/1 8/3/1
f 10/2/1 6/2/1 9/2/1
f 13/1/1 12/1/1 11/1/1
f 14/1/1 12/1/1 13/1/1
f 18/1/1 16/1/1 15/1/1
f 19/1/1 16/1/1 18/1/1
f 20/1/1 18/1/1 17/1/1
f 21/1/1 18/1/1 20/1/1
f 22/1/2 23/1/2 25/1/2
f 25/1/2 23/1/2 26/1/2
f 24/1/2 25/1/2 27/1/2
f 27/1/2 25/1/2 28/1/2
f 29/1/2 30/1/2 31/1/2
f 31/1/2 30/1/2 32/1/2
f 33/1/2 34/1/2 35/1/2
f 35/1/2 34/1/2 36/1/2
f 36/1/2 34/1/2 37/1/2
f 37/1/2 34/1/2 38/1/2
f 35/2/2 36/2/2 39/2/2
f 36/3/2 37/3/2 40/3/2
f 39/2/2 36/2/2 40/2/2
f 37/2/2 38/2/2 41/2/2
f 40/3/2 37/3/2 41/3/2
f 41/2/2 38/2/2 42/2/2
f 46/1/3 44/1/3 43/1/3
f 46/2/3 45/2/3 44/2/3
f 47/2/3 45/2/3 46/2/3
f 48/1/3 46/1/3 43/1/3
f 48/3/3 47/3/3 46/3/3
f 49/3/3 47/3/3 48/3/3
f 50/1/3 48/1/3 43/1/3
f 51/2/3 49/2/3 48/2/3
f 51/1/3 48/1/3 50/1/3
f 52/2/3 49/2/3 51/2/3
f 55/1/3 54/1/3 53/1/3
f 56/1/3 54/1/3 55/1/3
f 60/1/3 58/1/3 57/1/3
f 61/1/3 58/1/3 60/1/3
f 62/1/3 60/1/3 59/1/3
f 63/1/3 60/1/3 62/1/3
f 65/1/3 64/1/3 63/1/3
f 66/1/3 64/1/3 65/1/3
f 67/1/4 68/1/4 70/1/4
f 69/1/4 70/1/4 71/1/4
f 70/1/4 68/1/4 72/1/4
f 71/1/4 70/1/4 72/1/4
f 72/1/4 68/1/4 73/1/4
f 73/1/4 68/1/4 74/1/4
f 75/1/4 76/1/4 78/1/4
f 76/2/4 77/2/4 79/2/4
f 78/1/4 76/1/4 79/1/4
f 79/2/4 77/2/4 80/2/4
f 83/1/5 82/1/5 81/1/5
f 84/1/5 82/1/5 83/1/5
f 88/1/5 86/1/5 85/1/5
f 89/1/5 86/1/5 88/1/5
f 91/1/5 88/1/5 87/1/5
f 92/1/5 88/1/5 91/1/5
f 93/1/5 90/1/5 89/1/5
f 94/1/5 90/1/5 93/1/5
f 95/2/6 96/2/6 99/2/6
f 96/3/6 97/3/6 100/3/6
f 99/2/6 96/2/6 100/2/6
f 95/2/6 99/2/6 101/2/6
f 99/3/6 100/3/6 102/3/6
f 101/2/6 99/2/6 102/2/6
f 97/2/6 98/2/6 103/2/6
f 102/3/6 100/3/6 103/3/6
f 100/3/6 97/3/6 103/3/6
f 103/2/6 98/2/6 104/2/6
f 101/3/6 102/3/6 105/3/6
f 102/3/6 103/3/6 105/3/6
f 103/3/6 104/3/6 105/3/6
f 105/3/6 104/3/6 106/3/6
f 106/3/6 104/3/6 107/3/6
f 107/3/6 104/3/6 108/3/6
f 105/2/6 106/2/6 109/2/6
f 107/2/6 108/2/6 110/2/6
f 105/2/6 109/2/6 111/2/6
f 109/2/6 110/2/6 111/2/6
f 110/2/6 108/2/6 112/2/6
f 111/2/6 110/2/6 112/2/6
f 113/1/6 114/1/6 116/1/6
f 116/1/6 114/1/6 117/1/6
f 115/1/6 116/1/6 119/1/6
f 117/1/6 118/1/6 119/1/6
f 116/1/6 117/1/6 119/1/6
f 119/1/6 118/1/6 120/1/6
